<svg width="14" height="15" viewBox="0 0 14 15" fill="none" xmlns="http://www.w3.org/2000/svg">
<g clip-path="url(#clip0_443_1096)">
<path d="M6.40662 13.8964C6.25068 13.7405 6.16308 13.529 6.16308 13.3084C6.16308 13.0879 6.25068 12.8764 6.40662 12.7204L10.81 8.31705H1.17166C0.950985 8.31705 0.739347 8.22939 0.583305 8.07335C0.427263 7.9173 0.3396 7.70567 0.3396 7.48499C0.3396 7.26431 0.427263 7.05268 0.583305 6.89663C0.739347 6.74059 0.950985 6.65293 1.17166 6.65293H10.81L6.40662 2.25053C6.25762 2.09303 6.17594 1.88362 6.17895 1.66684C6.18196 1.45005 6.26942 1.24298 6.42272 1.08968C6.57603 0.93637 6.78309 0.848914 6.99988 0.845905C7.21667 0.842897 7.42608 0.924575 7.58358 1.07357L13.4025 6.89351C13.4809 6.97087 13.5432 7.06304 13.5857 7.16466C13.6282 7.26628 13.6501 7.37534 13.6501 7.48549C13.6501 7.59564 13.6282 7.70469 13.5857 7.80632C13.5432 7.90794 13.4809 8.00011 13.4025 8.07747L7.58358 13.8964C7.42747 14.0524 7.2158 14.14 6.9951 14.14C6.7744 14.14 6.56273 14.0524 6.40662 13.8964Z" fill="#FF642F"/>
</g>
<defs>
<clipPath id="clip0_443_1096">
<rect width="13.31" height="13.31" fill="white" transform="translate(0.340088 0.829956)"/>
</clipPath>
</defs>
</svg>
